<svg viewBox="0 0 164 60"
    xmlns="http://www.w3.org/2000/svg">
    <g fill="none" fill-rule="evenodd">
        <path fill="#282828" d="M0 59.814h59.814V0H0z"></path>
        <path d="M72.658 39.583c.801 0 1.549.171 2.241.513.693.343 1.257.764 1.691 1.265l-1.377 1.728a5.437 5.437 0 00-1.215-.864 2.958 2.958 0 00-1.39-.363c-.484 0-.876.117-1.177.35-.3.234-.45.535-.45.902 0 .435.178.772.538 1.015.319.215.806.453 1.462.715l.253.099c.785.3 1.423.588 1.916.863.492.276.918.664 1.277 1.165.359.501.539 1.144.539 1.928a3.21 3.21 0 01-.551 1.841c-.368.542-.881.973-1.54 1.29-.66.317-1.416.476-2.267.476-.785 0-1.59-.184-2.417-.551-.826-.367-1.499-.843-2.016-1.428l1.478-1.753c1.002.969 2.012 1.452 3.03 1.452.534 0 .972-.124 1.315-.375.342-.25.513-.584.513-1.001 0-.468-.191-.835-.575-1.103-.385-.267-.986-.55-1.803-.851a15.85 15.85 0 01-1.841-.852 3.793 3.793 0 01-1.228-1.114c-.342-.476-.513-1.09-.513-1.841 0-.651.167-1.244.5-1.778.335-.534.815-.955 1.441-1.265.626-.309 1.348-.463 2.166-.463zm12.573 0c1.552 0 2.854.418 3.906 1.252v2.73c-.417-.467-.951-.855-1.602-1.165a4.851 4.851 0 00-2.105-.463c-.8 0-1.524.184-2.165.55a3.876 3.876 0 00-1.49 1.491 4.152 4.152 0 00-.527 2.066c0 .752.175 1.44.526 2.066a3.868 3.868 0 001.49 1.49c.642.368 1.365.552 2.166.552.752 0 1.454-.155 2.105-.464.65-.309 1.185-.697 1.602-1.165v2.73c-1.052.835-2.354 1.253-3.906 1.253-1.253 0-2.364-.292-3.332-.877a6.109 6.109 0 01-2.254-2.354 6.67 6.67 0 01-.8-3.23c0-1.169.266-2.246.8-3.231a6.11 6.11 0 012.254-2.355c.968-.584 2.08-.876 3.332-.876zm26.871 0c1.236 0 2.338.293 3.306.877a6.174 6.174 0 012.267 2.366c.542.994.814 2.066.814 3.218a6.614 6.614 0 01-.814 3.219 6.182 6.182 0 01-2.267 2.366c-.968.585-2.07.877-3.306.877-1.235 0-2.338-.292-3.306-.877a6.177 6.177 0 01-2.266-2.366 6.608 6.608 0 01-.814-3.219c0-1.152.272-2.224.814-3.218a6.17 6.17 0 012.266-2.366c.968-.584 2.07-.877 3.306-.877zm14.926 0c1.236 0 2.338.293 3.306.877a6.174 6.174 0 012.267 2.366c.542.994.814 2.066.814 3.218a6.614 6.614 0 01-.814 3.219 6.182 6.182 0 01-2.267 2.366c-.968.585-2.07.877-3.306.877-1.235 0-2.338-.292-3.306-.877a6.177 6.177 0 01-2.266-2.366 6.608 6.608 0 01-.814-3.219c0-1.152.272-2.224.814-3.218a6.17 6.17 0 012.266-2.366c.968-.584 2.07-.877 3.306-.877zm11.67-7.313v20.035h-2.354V32.27h2.354zm-44.051 0v9.291a4.255 4.255 0 011.553-1.477c.651-.367 1.402-.551 2.254-.551.851 0 1.631.213 2.341.639.71.425 1.277 1.056 1.703 1.89.426.835.639 1.853.639 3.056v7.187h-2.354v-6.837c0-1.202-.28-2.132-.84-2.792-.56-.66-1.298-.989-2.216-.989-.901 0-1.636.33-2.203.99-.568.659-.852 1.59-.852 2.791l-.025-.1v6.937h-2.354V32.27h2.354zm17.455 9.667c-.768 0-1.452.184-2.053.55a3.912 3.912 0 00-1.415 1.491 4.182 4.182 0 00-.514 2.041c0 .735.171 1.42.514 2.054.342.634.813 1.14 1.415 1.515.601.375 1.285.563 2.053.563.785 0 1.478-.188 2.079-.563a3.827 3.827 0 001.39-1.503 4.414 4.414 0 00.488-2.066c0-.734-.162-1.415-.488-2.04a3.738 3.738 0 00-1.39-1.491c-.601-.367-1.294-.55-2.079-.55zm14.926 0c-.767 0-1.452.184-2.053.55a3.912 3.912 0 00-1.415 1.491 4.182 4.182 0 00-.513 2.041c0 .735.17 1.42.513 2.054.342.634.813 1.14 1.415 1.515.601.375 1.286.563 2.053.563.785 0 1.478-.188 2.08-.563a3.827 3.827 0 001.39-1.503 4.414 4.414 0 00.487-2.066c0-.734-.162-1.415-.488-2.04a3.738 3.738 0 00-1.39-1.491c-.601-.367-1.294-.55-2.079-.55zm-40.37-25.48v6.837c0 1.202.279 2.132.839 2.792.559.66 1.298.99 2.216.99.901 0 1.636-.33 2.204-.99.567-.66.852-1.59.852-2.792v-6.838h2.353v12.522H92.77v-1.753a4.162 4.162 0 01-1.553 1.466c-.651.359-1.395.538-2.23.538a4.469 4.469 0 01-2.341-.638c-.71-.427-1.278-1.056-1.703-1.891-.426-.835-.639-1.854-.639-3.056v-7.188h2.354zm15.802-.2c.802 0 1.549.17 2.242.513.692.342 1.256.763 1.69 1.265l-1.377 1.727a5.452 5.452 0 00-1.215-.863 2.955 2.955 0 00-1.39-.364c-.484 0-.876.117-1.177.35a1.093 1.093 0 00-.451.902c0 .435.18.773.539 1.015.279.188.687.394 1.223.618l.492.196c.785.3 1.424.588 1.916.864.492.275.918.664 1.277 1.164.36.502.539 1.145.539 1.929 0 .685-.184 1.298-.551 1.84-.368.543-.88.974-1.54 1.29-.66.318-1.415.476-2.267.476-.785 0-1.59-.184-2.416-.55-.827-.368-1.5-.844-2.017-1.428l1.478-1.753c1.002.968 2.012 1.452 3.03 1.452.534 0 .973-.125 1.315-.376a1.18 1.18 0 00.514-1.001c0-.467-.193-.835-.577-1.102-.384-.267-.985-.551-1.802-.852-.752-.3-1.366-.584-1.842-.851a3.791 3.791 0 01-1.227-1.115c-.342-.475-.513-1.09-.513-1.84 0-.652.167-1.244.501-1.779.333-.534.813-.955 1.44-1.265.626-.308 1.348-.463 2.166-.463zm45.655 0c.801 0 1.548.17 2.241.513.692.342 1.256.763 1.69 1.265l-1.377 1.727a5.452 5.452 0 00-1.215-.863 2.955 2.955 0 00-1.39-.364c-.484 0-.876.117-1.176.35a1.093 1.093 0 00-.452.902c0 .435.18.773.54 1.015.278.188.686.394 1.223.618l.491.196c.785.3 1.424.588 1.917.864.492.275.917.664 1.277 1.164.359.502.539 1.145.539 1.929 0 .685-.185 1.298-.552 1.84-.368.543-.88.974-1.54 1.29-.66.318-1.415.476-2.266.476-.785 0-1.59-.184-2.417-.55-.827-.368-1.5-.844-2.016-1.428l1.477-1.753c1.002.968 2.012 1.452 3.03 1.452.534 0 .973-.125 1.315-.376a1.18 1.18 0 00.514-1.001c0-.467-.192-.835-.576-1.102-.385-.267-.986-.551-1.803-.852-.752-.3-1.366-.584-1.841-.851a3.791 3.791 0 01-1.227-1.115c-.342-.475-.514-1.09-.514-1.84 0-.652.167-1.244.501-1.779.334-.534.814-.955 1.44-1.265.626-.308 1.348-.463 2.167-.463zm10.769 0c.801 0 1.548.17 2.241.513.693.342 1.256.763 1.69 1.265l-1.377 1.727a5.452 5.452 0 00-1.214-.863 2.955 2.955 0 00-1.39-.364c-.485 0-.877.117-1.177.35a1.093 1.093 0 00-.452.902c0 .435.18.773.54 1.015.278.188.686.394 1.223.618l.491.196c.785.3 1.424.588 1.917.864.492.275.917.664 1.277 1.164.359.502.538 1.145.538 1.929 0 .685-.184 1.298-.551 1.84-.367.543-.88.974-1.54 1.29-.66.318-1.415.476-2.266.476-.785 0-1.59-.184-2.417-.55-.827-.368-1.499-.844-2.016-1.428l1.478-1.753c1.001.968 2.011 1.452 3.03 1.452.533 0 .972-.125 1.315-.376a1.18 1.18 0 00.513-1.001c0-.467-.192-.835-.576-1.102-.385-.267-.986-.551-1.803-.852-.752-.3-1.365-.584-1.841-.851a3.791 3.791 0 01-1.227-1.115c-.342-.475-.514-1.09-.514-1.84 0-.652.167-1.244.502-1.779.333-.534.813-.955 1.44-1.265.626-.308 1.347-.463 2.166-.463zm-22.79.025c1.185 0 2.225.3 3.118.901.893.601 1.578 1.415 2.054 2.442.476 1.027.713 2.158.713 3.393l-.004.309-.012.244a2.755 2.755 0 01-.01.098h-9.566c.184.985.643 1.77 1.378 2.355.735.584 1.636.876 2.705.876.784 0 1.51-.116 2.179-.35a8.317 8.317 0 001.953-1.002v2.379c-.535.4-1.169.71-1.903.927a8.29 8.29 0 01-2.354.325c-1.286 0-2.414-.288-3.381-.864a5.833 5.833 0 01-2.23-2.342c-.517-.985-.776-2.07-.776-3.255 0-1.169.259-2.242.776-3.218a6.089 6.089 0 012.167-2.342c.926-.584 1.991-.876 3.193-.876zM71.381 8.944v9.541a5.693 5.693 0 011.879-1.615 5.077 5.077 0 012.428-.589c1.136 0 2.15.285 3.043.852a5.765 5.765 0 012.08 2.316c.49.977.738 2.066.738 3.268 0 1.203-.247 2.292-.739 3.269a5.755 5.755 0 01-2.079 2.316c-.893.568-1.907.852-3.043.852-.901 0-1.719-.2-2.454-.601a5.586 5.586 0 01-1.853-1.628v2.054h-2.354V8.944h2.354zm51.29 7.262c.851 0 1.631.213 2.341.64.71.425 1.278 1.055 1.703 1.89.426.835.639 1.853.639 3.055v7.188H125v-6.837c0-1.202-.28-2.133-.84-2.792-.56-.66-1.298-.99-2.216-.99-.902 0-1.636.33-2.203.99-.568.66-.852 1.59-.852 2.792v6.837h-2.355V16.456h2.355v1.754a4.164 4.164 0 011.552-1.465c.652-.359 1.394-.539 2.23-.539zm-10.294.25v12.522h-2.354V16.456h2.354zM75.288 18.56c-.735 0-1.399.193-1.991.577a4.019 4.019 0 00-1.39 1.527 4.34 4.34 0 00-.5 2.053c0 .735.166 1.42.5 2.054.334.635.797 1.14 1.39 1.516a3.642 3.642 0 001.991.563 3.64 3.64 0 001.978-.551 3.764 3.764 0 001.365-1.503 4.488 4.488 0 00.489-2.079 4.54 4.54 0 00-.489-2.103 3.769 3.769 0 00-1.365-1.503 3.644 3.644 0 00-1.978-.55zm60.756.075c-.935 0-1.728.284-2.38.852-.65.568-1.068 1.311-1.252 2.229h7.063c-.184-.935-.58-1.682-1.19-2.241-.61-.56-1.356-.84-2.24-.84zM111.2 10.897c.452 0 .83.15 1.14.45.309.301.463.677.463 1.128 0 .467-.15.856-.45 1.165-.301.308-.685.463-1.153.463-.468 0-.851-.155-1.152-.463-.3-.31-.45-.698-.45-1.165 0-.451.15-.827.45-1.128.301-.3.684-.45 1.152-.45z" fill="#282828"></path>
        <path d="M14.752 38.073c4.064 0 7.092 2.83 7.092 6.873 0 4.044-3.028 6.873-7.092 6.873-4.065 0-7.113-2.83-7.113-6.873 0-4.044 3.048-6.873 7.113-6.873zm17.473.22c2.948 0 4.622 1.952 4.622 4.422 0 2.311-1.394 3.546-2.65 3.985l2.71 4.88h-3.925l-2.231-4.462h-1.754v4.462h-3.426V38.292h6.654zm18.25-.001v2.988h-6.316v2.073h6.176v2.987H44.16v2.252h6.316v2.988h-9.742V38.292h9.742zm-35.723 2.81c-2.192 0-3.627 1.672-3.627 3.844 0 2.151 1.435 3.845 3.627 3.845 2.19 0 3.605-1.694 3.605-3.845 0-2.172-1.414-3.845-3.605-3.845zm16.955.179h-2.71v2.848h2.71c.916 0 1.653-.498 1.653-1.434 0-.916-.737-1.414-1.653-1.414zM17.333 8.259c5.731 0 9.54 3.404 9.54 8.73 0 3.135-1.155 5.327-4.482 8.481l-3.846 3.654h8.866v6.558H8.526v-5.558l9.154-8.634c1.211-1.154 1.827-2.347 1.827-3.597 0-1.73-1.365-2.827-3.058-2.827-2.08 0-3.643 1.18-5.045 2.562l-.378.381-4.019-4.904.143-.168.304-.341c1.89-2.06 5.016-4.337 9.88-4.337zm29.04.5l-7.518 16.038H42.2v-2.384l2.115-4.635h4.981v7.02h3.058v6.557h-3.058v4.327h-7.096v-4.327H30.393v-4.866l8.25-17.73h7.73z" fill="#fafafa"></path>
    </g>
</svg>