<svg fill="#282828" width="150px" height="auto" version="1.1"
    xmlns="http://www.w3.org/2000/svg" viewBox="0 0 1095.7829 173.9961">
    <path d="M61.5991,135.9986H36.6V39.4H0V17.2H98.1982V39.4H61.5991Z" />
    <path d="M186.2007,133.3985c-10.2,2.8-25.6,4.6-36.8,4.6-25.7993,0-41.999-8-41.999-34.3994V46.8h24.1992v54.7994c0,11.4,5,16.6,17.6,16.6a78.1945,78.1945,0,0,0,12.8-1.2V46.8h24.2Z" />
    <path d="M236.2,135.9986h-24V53.6c9.8-5.2,22.6-8.2,35.5991-8.2a64.1865,64.1865,0,0,1,18.6,2.4V71c-5.8-2.4-12.2-3-18-3a39.9718,39.9718,0,0,0-12.2,2Z" />
    <path d="M282.5981,52.6a129.4031,129.4031,0,0,1,42.5992-7.8c23.2,0,38.1992,8.6,38.1992,35.2v55.999H339.1973V81.5992c0-9.9995-5.4-15.2-15.8-15.2a56.83,56.83,0,0,0-16.8,2.6v66.999h-24Z" />
    <path d="M411.9961,135.9986h-24V46.8h24Z" />
    <path d="M437.9966,52.6a129.402,129.402,0,0,1,42.5991-7.8c23.2,0,38.1992,8.6,38.1992,35.2v55.999H494.5957V81.5992c0-9.9995-5.4-15.2-15.8-15.2a56.83,56.83,0,0,0-16.8,2.6v66.999h-24Z" />
    <path d="M598.9946,132.1988c-3,1.6-9.6,3-16.4,3-27,0-45.7993-15.6-45.7993-44.7993,0-28.4,19-45.6,50.1992-45.6a97.32,97.32,0,0,1,36.1992,6.8v82.999c0,30.6-24.6,39.3994-44.7988,39.3994a70.6353,70.6353,0,0,1-30.6-6.6V144.9986c10.8,6.2,19.6,8.8,30.6,8.8,11.6,0,20.6-6.2,20.6-19.8Zm0-64.5991a42.1078,42.1078,0,0,0-12-1.8c-16,0-25.8,8.2-25.8,24.6,0,15.3994,9.6,24.6,24.2,24.6a40.1387,40.1387,0,0,0,13.6-2.6Z" />
    <path d="M643.3921,104.1993c9,6.8,19,12.2,32.2,12.2,10.2,0,19.2-3.6,19.2-13.4,0-9-7.4-12.4-19.8-15.9995-23.8-6.6-33.6-16.6-33.6-36.6,0-22.6,17.6-35.2,39.6-35.2,13.4,0,23.2,3.4,31.6,8.8V49c-9.4-7.6-19-12.2-30.8-12.2-10.2,0-15.8,4.9995-15.8,12.3994,0,8.4,6.8,11.8,20.6,15.6,23.8,6.8,33,17.3995,33,37.3995,0,24.7993-19.6006,35.7993-44,35.7993-13,0-24.6-3.6-32.2-8.6Z" />
    <path d="M780.1875,44.8c26.6,0,46.8,18.8,46.8,46.6s-20.2,46.5991-46.8,46.5991-46.5986-18.8-46.5986-46.5991S753.5879,44.8,780.1875,44.8Zm0,20.8c-13,0-22.3994,9.8-22.3994,25.8s9.3994,25.7993,22.3994,25.7993,22.3994-9.8,22.3994-25.7993S793.1875,65.6,780.1875,65.6Z" />
    <path d="M912.9854,74.2a34.136,34.136,0,0,0-22.8-8.2c-14.8,0-25.3994,9.2-25.3994,25.2,0,15.2,10.2,25.6,26.3994,25.6,8.4,0,15.8-2.8,22.6-8v22.6c-8,4.8-16.8,6.6-25.9991,6.6-28.8,0-47.1992-18.4-47.1992-46.3994,0-28.2,19.7988-46.7994,46.999-46.7994,10.1993,0,17.8,2,25.3995,6.6Z" />
    <path d="M957.9834,135.9986h-23.999V.0005h23.999Zm1-48.3994L992.583,46.8h28.8L986.1836,87.1993l35.999,48.7993h-27.999Z" />
    <path d="M1031.3838,108.5992c8.4,6.2,19.6,9.9995,28.3994,9.9995,7.4,0,12.4-2.2,12.4-7.8,0-5.4-3.8-7.6-13.6-9.6-20.2-3.6-28.6-11.6-28.6-27.8,0-19.6,14.8-28.6,33.999-28.6,10.6,0,18.3994,2.2,26.2,6.6v21.4c-8.4-5.6-16.2-8.6-25.4-8.6-8,0-11.3994,3.4-11.3994,7.6,0,4.6,3.2,7,11.6,9,23,4.2,30.8,13,30.8,28.9995,0,19.4-14.6,28.2-35.3994,28.2-10.8,0-21.8-2.6-29-7.2Z" />
    <rect x="387.9965" y="17.2291" width="23.9997" height="20.9997" />
</svg>